# xmcd
#
# Track frame offsets:
#	150
#	15914
#	27316
#	41881
#	55935
#	71121
#	83490
#	100428
#	115964
#	127509
#	141220
#	151801
#	163741
#
# Disc length: 2377 seconds
#
# Revision: 0
# Processed by: cddbd v1.5.2PL0 Copyright (c) Steve Scherf et al.
# Submitted via: dBpowerAMP V4.0
#
DISCID=a209470d
DTITLE=Adcock, Gaudreau, Waller and Gray - The Country Gentlemen Reunion Band
DYEAR=2008
DGENRE=Bluegrass
TTITLE0=Widow Of The Glade
TTITLE1=I Hope You Have Learned
TTITLE2=White Line Fever
TTITLE3=Country Poor And Country Proud
TTITLE4=Grave In The Valley
TTITLE5=El Doggo
TTITLE6=Little Box Of Pine
TTITLE7=Sundown And Sorrow
TTITLE8=Will There Ever Be Another
TTITLE9=Sweet Georgia Brown
TTITLE10=Down By The Old Trout Stream
TTITLE11=Some Old Day
TTITLE12=Twenty One Miles
EXTD=Bluegrass
EXTT0=
EXTT1=
EXTT2=
EXTT3=
EXTT4=
EXTT5=
EXTT6=
EXTT7=
EXTT8=
EXTT9=
EXTT10=
EXTT11=
EXTT12=
PLAYORDER=
